<svg width="81" height="80" viewBox="0 0 81 80" fill="none" xmlns="http://www.w3.org/2000/svg">
<path d="M0.356934 40C0.356934 17.9086 18.2655 0 40.3569 0C62.4483 0 80.3569 17.9086 80.3569 40C80.3569 62.0914 62.4483 80 40.3569 80C18.2655 80 0.356934 62.0914 0.356934 40Z" fill="white"/>
<circle cx="40.8572" cy="43.5" r="20.6731" fill="#F1023D"/>
<path d="M33.4147 23.6538C33.4147 23.6538 26.7993 31.1953 26.7993 43.5C26.7993 55.8046 33.4147 63.3461 33.4147 63.3461" stroke="white" stroke-linecap="round"/>
<path d="M48.2992 23.6538C48.2992 23.6538 54.9146 31.1953 54.9146 43.5C54.9146 55.8046 48.2992 63.3461 48.2992 63.3461" stroke="white" stroke-linecap="round"/>
<line x1="41.3569" y1="22.5" x2="41.3569" y2="64.5" stroke="white" stroke-linecap="round"/>
<line x1="19.8569" y1="43" x2="61.8569" y2="43" stroke="white" stroke-linecap="round"/>
<mask id="path-7-inside-1_7802:20103" fill="white">
<path fill-rule="evenodd" clip-rule="evenodd" d="M61.3569 22.5C61.3569 24.1011 60.9142 25.5989 60.1446 26.8775L53.723 38C53.3381 38.6667 52.3758 38.6667 51.9909 38L45.5694 26.8777C44.7997 25.599 44.3569 24.1012 44.3569 22.5C44.3569 17.8056 48.1625 14 52.8569 14C57.5514 14 61.3569 17.8056 61.3569 22.5ZM52.8569 25C54.2376 25 55.3569 23.8807 55.3569 22.5C55.3569 21.1193 54.2376 20 52.8569 20C51.4762 20 50.3569 21.1193 50.3569 22.5C50.3569 23.8807 51.4762 25 52.8569 25Z"/>
</mask>
<path fill-rule="evenodd" clip-rule="evenodd" d="M61.3569 22.5C61.3569 24.1011 60.9142 25.5989 60.1446 26.8775L53.723 38C53.3381 38.6667 52.3758 38.6667 51.9909 38L45.5694 26.8777C44.7997 25.599 44.3569 24.1012 44.3569 22.5C44.3569 17.8056 48.1625 14 52.8569 14C57.5514 14 61.3569 17.8056 61.3569 22.5ZM52.8569 25C54.2376 25 55.3569 23.8807 55.3569 22.5C55.3569 21.1193 54.2376 20 52.8569 20C51.4762 20 50.3569 21.1193 50.3569 22.5C50.3569 23.8807 51.4762 25 52.8569 25Z" fill="#210309"/>
<path d="M60.1446 26.8775L59.2878 26.3617L59.2831 26.3696L59.2785 26.3775L60.1446 26.8775ZM53.723 38L54.589 38.5L53.723 38ZM51.9909 38L52.8569 37.5L51.9909 38ZM45.5694 26.8777L46.4354 26.3777L46.4309 26.3697L46.4262 26.3619L45.5694 26.8777ZM61.0013 27.3932C61.8621 25.9633 62.3569 24.2879 62.3569 22.5H60.3569C60.3569 23.9144 59.9664 25.2345 59.2878 26.3617L61.0013 27.3932ZM54.589 38.5L61.0106 27.3775L59.2785 26.3775L52.8569 37.5L54.589 38.5ZM51.1249 38.5C51.8947 39.8333 53.8192 39.8333 54.589 38.5L52.8569 37.5V37.5L51.1249 38.5ZM44.7034 27.3777L51.1249 38.5L52.8569 37.5L46.4354 26.3777L44.7034 27.3777ZM43.3569 22.5C43.3569 24.288 43.8518 25.9634 44.7127 27.3934L46.4262 26.3619C45.7475 25.2346 45.3569 23.9144 45.3569 22.5H43.3569ZM52.8569 13C47.6102 13 43.3569 17.2533 43.3569 22.5H45.3569C45.3569 18.3579 48.7148 15 52.8569 15V13ZM62.3569 22.5C62.3569 17.2533 58.1036 13 52.8569 13V15C56.9991 15 60.3569 18.3579 60.3569 22.5H62.3569ZM54.3569 22.5C54.3569 23.3284 53.6854 24 52.8569 24V26C54.7899 26 56.3569 24.433 56.3569 22.5H54.3569ZM52.8569 21C53.6854 21 54.3569 21.6716 54.3569 22.5H56.3569C56.3569 20.567 54.7899 19 52.8569 19V21ZM51.3569 22.5C51.3569 21.6716 52.0285 21 52.8569 21V19C50.9239 19 49.3569 20.567 49.3569 22.5H51.3569ZM52.8569 24C52.0285 24 51.3569 23.3284 51.3569 22.5H49.3569C49.3569 24.433 50.9239 26 52.8569 26V24Z" fill="white" mask="url(#path-7-inside-1_7802:20103)"/>
</svg>
